<?xml version="1.0" encoding="UTF-8" standalone="no"?>
<!DOCTYPE svg PUBLIC "-//W3C//DTD SVG 1.1//EN" "http://www.w3.org/Graphics/SVG/1.1/DTD/svg11.dtd">
<svg width="100%" height="100%" viewBox="0 0 800 800" version="1.1" xmlns="http://www.w3.org/2000/svg" xmlns:xlink="http://www.w3.org/1999/xlink" xml:space="preserve" xmlns:serif="http://www.serif.com/" style="fill-rule:evenodd;clip-rule:evenodd;stroke-linejoin:round;stroke-miterlimit:2;">
    <g>
        <path d="M461.873,378.541C464.233,385.416 465.448,392.694 465.434,400.013C465.434,402.034 465.342,404.069 465.172,406.117C463.619,470.548 437.661,531.219 392.081,576.786C344.884,623.997 282.086,650.008 215.242,650.034C208.355,650.034 201.427,649.747 194.566,649.2C204.884,682.152 223.253,712.389 247.908,737.058C288.478,777.641 342.484,800 399.988,800C457.477,799.988 511.756,777.367 552.834,736.288C582.356,706.767 602.419,669.55 610.794,628.627C611.184,626.748 611.486,625.209 611.784,623.709C614.081,610.82 615.255,597.697 615.255,584.731C615.255,527.228 592.727,473.066 551.855,432.197C526.811,407.148 495.869,388.716 461.873,378.541Z" style="fill:rgb(163,116,213);fill-rule:nonzero;"/>
        <path d="M338.128,421.433C335.766,414.584 334.541,407.319 334.541,399.986C334.553,397.966 334.658,395.995 334.789,394.038L334.828,393.398C336.459,329.217 362.419,268.7 407.92,223.2C455.117,176.016 517.93,150.005 584.759,149.952C591.686,149.964 598.613,150.238 605.463,150.813C595.131,117.861 576.816,87.648 552.213,63.031C511.561,22.386 457.502,0 400.013,0C342.523,0 288.478,22.397 247.803,63.072C217.942,92.931 197.697,130.358 189.231,171.345C188.931,172.923 188.619,174.528 188.319,176.198L187.509,180.816C185.683,192.192 184.769,203.775 184.758,215.255C184.758,272.758 207.13,326.803 247.805,367.452C273.033,392.694 304.08,411.219 338.128,421.433Z" style="fill:rgb(163,116,213);fill-rule:nonzero;"/>
        <path d="M737.006,247.83C707.172,217.995 669.68,197.723 628.602,189.219C627.114,188.892 625.602,188.592 624.077,188.358C611.07,185.997 597.881,184.797 584.72,184.756C527.231,184.744 473.172,207.142 432.509,247.791C407.294,273.006 388.77,304.067 378.569,338.139C385.392,335.792 392.633,334.553 399.95,334.539C402.011,334.539 403.969,334.658 405.925,334.775C470.616,336.366 531.066,362.222 576.45,407.605C623.895,455.05 650.023,517.953 650.023,584.758C650.023,591.67 649.711,598.598 649.177,605.433C682.114,595.114 712.341,576.8 736.93,552.208C777.602,511.522 800,457.475 800,399.986C800,342.497 777.641,288.438 737.006,247.83Z" style="fill:rgb(163,116,213);fill-rule:nonzero;"/>
        <path d="M367.491,552.209C392.681,527.006 411.191,495.959 421.431,461.847C414.57,464.22 407.278,465.447 399.947,465.434C398.172,465.434 396.373,465.33 394.638,465.173C330.142,463.961 269.131,437.975 223.212,392.044C175.975,344.808 149.964,282.022 149.977,215.256C149.977,208.395 150.25,201.441 150.825,194.541C117.925,204.847 87.7,223.148 63.084,247.791C22.411,288.466 0,342.523 0,400.013C0,457.516 22.294,511.444 62.72,551.895C92.684,581.847 130.28,602.223 171.411,610.767L176.564,611.811C189.061,614.081 202.106,615.242 215.242,615.242C272.772,615.244 326.844,592.844 367.491,552.209Z" style="fill:rgb(163,116,213);fill-rule:nonzero;"/>
    </g>
</svg>
